<svg xmlns="http://www.w3.org/2000/svg" fill="#ffffff" width="1792" height="1792"><path d="m527.059 1479.338 316.235-158.118v-258.588L527.06 1197.691v281.647zm-52.706-373.882 332.706-142.47-332.706-142.472-332.706 142.471Zm896 373.882 316.235-158.118v-258.588l-316.235 135.059v281.647zm-52.706-373.882 332.706-142.47-332.706-142.471-332.706 142.47ZM948.706 864.16 1264.94 728.28V509.22L948.706 644.28V864.16zM896 552.044l363.177-155.647L896 240.75 532.824 396.397Zm896 426.588v342.588q0 29.647-15.647 55.177t-42.824 38.706l-368.94 184.47q-20.589 11.53-46.942 11.53t-46.941-11.53l-368.941-184.47q-4.118-1.647-5.765-3.294-1.647 1.647-5.765 3.294l-368.94 184.47q-20.59 11.53-46.942 11.53-26.353 0-46.941-11.53L58.47 1415.103q-27.177-13.177-42.824-38.706Q0 1350.867 0 1321.22V978.632q0-31.294 17.706-57.647 17.706-26.353 46.53-39.53L421.646 728.28V398.867q0-31.294 17.706-57.647 17.706-26.353 46.53-39.53l368.94-158.117q18.942-8.235 41.177-8.235t41.176 8.235l368.942 158.118q28.823 13.176 46.53 39.53 17.705 26.352 17.705 57.646V728.28l357.412 153.177q29.647 13.176 46.94 39.53Q1792 947.337 1792 978.631Z"/></svg>